<?xml version="1.0" encoding="UTF-8"?>
<!DOCTYPE svg PUBLIC "-//W3C//DTD SVG 1.1//EN" "http://www.w3.org/Graphics/SVG/1.1/DTD/svg11.dtd">
<svg xmlns="http://www.w3.org/2000/svg" version="1.1" width="1920px" height="1080px" style="shape-rendering:geometricPrecision; text-rendering:geometricPrecision; image-rendering:optimizeQuality; fill-rule:evenodd; clip-rule:evenodd" xmlns:xlink="http://www.w3.org/1999/xlink">
<g><path style="opacity:1" fill="#1d1e22" d="M -0.5,-0.5 C 90.1667,-0.5 180.833,-0.5 271.5,-0.5C 263.904,21.2853 255.904,42.952 247.5,64.5C 260.235,98.5389 273.068,132.539 286,166.5C 298.833,132.667 311.667,98.8333 324.5,65C 316.194,43.2464 308.194,21.4131 300.5,-0.5C 304.833,-0.5 309.167,-0.5 313.5,-0.5C 319.365,15.9263 325.532,32.2596 332,48.5C 338.468,32.2596 344.635,15.9263 350.5,-0.5C 355.833,-0.5 361.167,-0.5 366.5,-0.5C 358.904,21.2853 350.904,42.952 342.5,64.5C 355.235,98.5389 368.068,132.539 381,166.5C 393.833,132.667 406.667,98.8333 419.5,65C 411.194,43.2464 403.194,21.4131 395.5,-0.5C 401.167,-0.5 406.833,-0.5 412.5,-0.5C 418.365,15.9263 424.532,32.2596 431,48.5C 437.468,32.2596 443.635,15.9263 449.5,-0.5C 454.167,-0.5 458.833,-0.5 463.5,-0.5C 455.904,21.2853 447.904,42.952 439.5,64.5C 452.235,98.5389 465.068,132.539 478,166.5C 490.833,132.667 503.667,98.8333 516.5,65C 508.194,43.2464 500.194,21.4131 492.5,-0.5C 497.167,-0.5 501.833,-0.5 506.5,-0.5C 512.365,15.9263 518.532,32.2596 525,48.5C 531.468,32.2596 537.635,15.9263 543.5,-0.5C 841.833,-0.5 1140.17,-0.5 1438.5,-0.5C 1426.13,31.1162 1414.46,62.9495 1403.5,95C 1415.39,129.006 1427.89,162.84 1441,196.5C 1454.03,162.867 1466.53,129.034 1478.5,95C 1466.67,63.1758 1455,31.3425 1443.5,-0.5C 1448.5,-0.5 1453.5,-0.5 1458.5,-0.5C 1467.62,26.3562 1477.45,53.0229 1488,79.5C 1498.53,53.0673 1508.37,26.4007 1517.5,-0.5C 1530.17,-0.5 1542.83,-0.5 1555.5,-0.5C 1564.63,26.4007 1574.47,53.0673 1585,79.5C 1595.46,52.9457 1605.29,26.279 1614.5,-0.5C 1618.83,-0.5 1623.17,-0.5 1627.5,-0.5C 1616.68,31.1094 1605.35,62.6094 1593.5,94C 1605.46,128.022 1617.96,161.855 1631,195.5C 1644.11,161.84 1656.61,128.006 1668.5,94C 1657.47,62.4088 1646.14,30.9088 1634.5,-0.5C 1639.5,-0.5 1644.5,-0.5 1649.5,-0.5C 1659.73,26.1998 1669.73,52.8665 1679.5,79.5C 1689.42,52.9668 1699.42,26.3001 1709.5,-0.5C 1779.5,-0.5 1849.5,-0.5 1919.5,-0.5C 1919.5,359.5 1919.5,719.5 1919.5,1079.5C 1831.17,1079.5 1742.83,1079.5 1654.5,1079.5C 1659.8,1065.75 1664.8,1051.92 1669.5,1038C 1657.72,1003.93 1645.22,970.093 1632,936.5C 1619.5,970.276 1607,1004.11 1594.5,1038C 1599.59,1051.89 1604.59,1065.72 1609.5,1079.5C 1604.83,1079.5 1600.17,1079.5 1595.5,1079.5C 1592.84,1071.04 1589.68,1062.71 1586,1054.5C 1582.07,1062.53 1578.91,1070.86 1576.5,1079.5C 1571.17,1079.5 1565.83,1079.5 1560.5,1079.5C 1565.1,1065.38 1570.1,1051.38 1575.5,1037.5C 1562.81,1003.75 1550.14,970.083 1537.5,936.5C 1524.86,970.083 1512.19,1003.75 1499.5,1037.5C 1504.9,1051.38 1509.9,1065.38 1514.5,1079.5C 1508.83,1079.5 1503.17,1079.5 1497.5,1079.5C 1494.82,1070.96 1491.65,1062.63 1488,1054.5C 1484.32,1062.71 1481.16,1071.04 1478.5,1079.5C 1473.5,1079.5 1468.5,1079.5 1463.5,1079.5C 1468.41,1065.75 1473.41,1051.92 1478.5,1038C 1466,1004.16 1453.5,970.324 1441,936.5C 1427.78,970.103 1415.28,1003.94 1403.5,1038C 1408.2,1051.92 1413.2,1065.75 1418.5,1079.5C 1108.5,1079.5 798.5,1079.5 488.5,1079.5C 497.728,1054.65 507.062,1029.82 516.5,1005C 503.806,971.112 490.972,937.278 478,903.5C 465.167,937.167 452.333,970.833 439.5,1004.5C 448.84,1029.52 458.174,1054.52 467.5,1079.5C 462.833,1079.5 458.167,1079.5 453.5,1079.5C 446.301,1059.74 438.801,1040.07 431,1020.5C 423.199,1040.07 415.699,1059.74 408.5,1079.5C 403.167,1079.5 397.833,1079.5 392.5,1079.5C 401.728,1054.65 411.062,1029.82 420.5,1005C 407.806,971.112 394.972,937.278 382,903.5C 369.167,937.167 356.333,970.833 343.5,1004.5C 352.84,1029.52 362.174,1054.52 371.5,1079.5C 365.833,1079.5 360.167,1079.5 354.5,1079.5C 347.301,1059.74 339.801,1040.07 332,1020.5C 324.199,1040.07 316.699,1059.74 309.5,1079.5C 303.5,1079.5 297.5,1079.5 291.5,1079.5C 300.728,1054.65 310.062,1029.82 319.5,1005C 306.806,971.112 293.972,937.278 281,903.5C 268.167,937.167 255.333,970.833 242.5,1004.5C 251.84,1029.52 261.174,1054.52 270.5,1079.5C 266.833,1079.5 263.167,1079.5 259.5,1079.5C 252.301,1059.74 244.801,1040.07 237,1020.5C 229.199,1040.07 221.699,1059.74 214.5,1079.5C 142.833,1079.5 71.1667,1079.5 -0.5,1079.5C -0.5,719.5 -0.5,359.5 -0.5,-0.5 Z"/></g>
<g><path style="opacity:1" fill="#28292e" d="M 271.5,-0.5 C 281.167,-0.5 290.833,-0.5 300.5,-0.5C 308.194,21.4131 316.194,43.2464 324.5,65C 311.667,98.8333 298.833,132.667 286,166.5C 273.068,132.539 260.235,98.5389 247.5,64.5C 255.904,42.952 263.904,21.2853 271.5,-0.5 Z"/></g>
<g><path style="opacity:1" fill="#28292e" d="M 313.5,-0.5 C 325.833,-0.5 338.167,-0.5 350.5,-0.5C 344.635,15.9263 338.468,32.2596 332,48.5C 325.532,32.2596 319.365,15.9263 313.5,-0.5 Z"/></g>
<g><path style="opacity:1" fill="#28292e" d="M 366.5,-0.5 C 376.167,-0.5 385.833,-0.5 395.5,-0.5C 403.194,21.4131 411.194,43.2464 419.5,65C 406.667,98.8333 393.833,132.667 381,166.5C 368.068,132.539 355.235,98.5389 342.5,64.5C 350.904,42.952 358.904,21.2853 366.5,-0.5 Z"/></g>
<g><path style="opacity:1" fill="#28292e" d="M 412.5,-0.5 C 424.833,-0.5 437.167,-0.5 449.5,-0.5C 443.635,15.9263 437.468,32.2596 431,48.5C 424.532,32.2596 418.365,15.9263 412.5,-0.5 Z"/></g>
<g><path style="opacity:1" fill="#28292e" d="M 463.5,-0.5 C 473.167,-0.5 482.833,-0.5 492.5,-0.5C 500.194,21.4131 508.194,43.2464 516.5,65C 503.667,98.8333 490.833,132.667 478,166.5C 465.068,132.539 452.235,98.5389 439.5,64.5C 447.904,42.952 455.904,21.2853 463.5,-0.5 Z"/></g>
<g><path style="opacity:1" fill="#28292e" d="M 506.5,-0.5 C 518.833,-0.5 531.167,-0.5 543.5,-0.5C 537.635,15.9263 531.468,32.2596 525,48.5C 518.532,32.2596 512.365,15.9263 506.5,-0.5 Z"/></g>
<g><path style="opacity:1" fill="#28292e" d="M 1438.5,-0.5 C 1440.17,-0.5 1441.83,-0.5 1443.5,-0.5C 1455,31.3425 1466.67,63.1758 1478.5,95C 1466.53,129.034 1454.03,162.867 1441,196.5C 1427.89,162.84 1415.39,129.006 1403.5,95C 1414.46,62.9495 1426.13,31.1162 1438.5,-0.5 Z"/></g>
<g><path style="opacity:1" fill="#28292e" d="M 1458.5,-0.5 C 1478.17,-0.5 1497.83,-0.5 1517.5,-0.5C 1508.37,26.4007 1498.53,53.0673 1488,79.5C 1477.45,53.0229 1467.62,26.3562 1458.5,-0.5 Z"/></g>
<g><path style="opacity:1" fill="#28292e" d="M 1555.5,-0.5 C 1575.17,-0.5 1594.83,-0.5 1614.5,-0.5C 1605.29,26.279 1595.46,52.9457 1585,79.5C 1574.47,53.0673 1564.63,26.4007 1555.5,-0.5 Z"/></g>
<g><path style="opacity:1" fill="#28292e" d="M 1627.5,-0.5 C 1629.83,-0.5 1632.17,-0.5 1634.5,-0.5C 1646.14,30.9088 1657.47,62.4088 1668.5,94C 1656.61,128.006 1644.11,161.84 1631,195.5C 1617.96,161.855 1605.46,128.022 1593.5,94C 1605.35,62.6094 1616.68,31.1094 1627.5,-0.5 Z"/></g>
<g><path style="opacity:1" fill="#28292e" d="M 1649.5,-0.5 C 1669.5,-0.5 1689.5,-0.5 1709.5,-0.5C 1699.42,26.3001 1689.42,52.9668 1679.5,79.5C 1669.73,52.8665 1659.73,26.1998 1649.5,-0.5 Z"/></g>
<g><path style="opacity:1" fill="#28292e" d="M 331.5,77.5 C 344.861,111.079 357.861,144.912 370.5,179C 357.667,212.833 344.833,246.667 332,280.5C 319.068,246.539 306.235,212.539 293.5,178.5C 306.458,144.922 319.125,111.255 331.5,77.5 Z"/></g>
<g><path style="opacity:1" fill="#28292e" d="M 430.5,77.5 C 443.861,111.079 456.861,144.912 469.5,179C 456.667,212.833 443.833,246.667 431,280.5C 418.068,246.539 405.235,212.539 392.5,178.5C 405.458,144.922 418.125,111.255 430.5,77.5 Z"/></g>
<g><path style="opacity:1" fill="#28292e" d="M 1487.5,112.5 C 1490.48,117.811 1492.98,123.478 1495,129.5C 1505.38,157.659 1515.55,185.826 1525.5,214C 1513.61,248.006 1501.11,281.84 1488,315.5C 1474.97,281.867 1462.47,248.034 1450.5,214C 1463.15,180.204 1475.48,146.37 1487.5,112.5 Z"/></g>
<g><path style="opacity:1" fill="#28292e" d="M 1585.5,112.5 C 1598.99,145.914 1611.66,179.747 1623.5,214C 1611.54,247.987 1599.04,281.82 1586,315.5C 1572.89,281.84 1560.39,248.006 1548.5,214C 1560.39,180.05 1572.72,146.217 1585.5,112.5 Z"/></g>
<g><path style="opacity:1" fill="#28292e" d="M 1394.5,112.5 C 1396.1,113.737 1397.26,115.404 1398,117.5C 1409.52,149.525 1421.35,181.525 1433.5,213.5C 1420.78,247.584 1408.11,281.584 1395.5,315.5C 1382.79,281.884 1370.12,248.05 1357.5,214C 1370.24,180.14 1382.57,146.307 1394.5,112.5 Z"/></g>
<g><path style="opacity:1" fill="#28292e" d="M 284.5,194.5 C 297.861,228.079 310.861,261.912 323.5,296C 310.667,329.833 297.833,363.667 285,397.5C 272.068,363.539 259.235,329.539 246.5,295.5C 259.458,261.922 272.125,228.255 284.5,194.5 Z"/></g>
<g><path style="opacity:1" fill="#28292e" d="M 381.5,194.5 C 394.861,228.079 407.861,261.912 420.5,296C 407.667,329.833 394.833,363.667 382,397.5C 369.068,363.539 356.235,329.539 343.5,295.5C 356.458,261.922 369.125,228.255 381.5,194.5 Z"/></g>
<g><path style="opacity:1" fill="#28292e" d="M 477.5,194.5 C 490.861,228.079 503.861,261.912 516.5,296C 503.667,329.833 490.833,363.667 478,397.5C 465.068,363.539 452.235,329.539 439.5,295.5C 452.458,261.922 465.125,228.255 477.5,194.5 Z"/></g>
<g><path style="opacity:1" fill="#28292e" d="M 1441.5,230.5 C 1454.99,263.914 1467.66,297.747 1479.5,332C 1467.54,365.987 1455.04,399.82 1442,433.5C 1428.89,399.84 1416.39,366.006 1404.5,332C 1416.39,298.05 1428.72,264.217 1441.5,230.5 Z"/></g>
<g><path style="opacity:1" fill="#28292e" d="M 1630.5,230.5 C 1631.12,230.611 1631.62,230.944 1632,231.5C 1644.61,264.879 1656.78,298.379 1668.5,332C 1656.61,366.006 1644.11,399.84 1631,433.5C 1617.96,399.855 1605.46,366.022 1593.5,332C 1605.61,298.014 1617.95,264.181 1630.5,230.5 Z"/></g>
<g><path style="opacity:1" fill="#28292e" d="M 1536.5,230.5 C 1538.73,234.611 1540.9,238.944 1543,243.5C 1553.22,273.006 1564.05,302.34 1575.5,331.5C 1563.03,365.404 1550.36,399.071 1537.5,432.5C 1524.64,399.071 1511.97,365.404 1499.5,331.5C 1512.46,297.933 1524.8,264.266 1536.5,230.5 Z"/></g>
<g><path style="opacity:1" fill="#28292e" d="M 236.5,311.5 C 249.861,345.079 262.861,378.912 275.5,413C 262.667,446.833 249.833,480.667 237,514.5C 224.068,480.539 211.235,446.539 198.5,412.5C 211.458,378.922 224.125,345.255 236.5,311.5 Z"/></g>
<g><path style="opacity:1" fill="#28292e" d="M 332.5,311.5 C 345.861,345.079 358.861,378.912 371.5,413C 358.667,446.833 345.833,480.667 333,514.5C 320.068,480.539 307.235,446.539 294.5,412.5C 307.458,378.922 320.125,345.255 332.5,311.5 Z"/></g>
<g><path style="opacity:1" fill="#28292e" d="M 430.5,311.5 C 443.861,345.079 456.861,378.912 469.5,413C 456.667,446.833 443.833,480.667 431,514.5C 418.068,480.539 405.235,446.539 392.5,412.5C 405.458,378.922 418.125,345.255 430.5,311.5 Z"/></g>
<g><path style="opacity:1" fill="#28292e" d="M 1487.5,344.5 C 1490.48,349.811 1492.98,355.478 1495,361.5C 1505.38,389.659 1515.55,417.826 1525.5,446C 1513.61,480.006 1501.11,513.84 1488,547.5C 1474.97,513.867 1462.47,480.034 1450.5,446C 1463.15,412.204 1475.48,378.37 1487.5,344.5 Z"/></g>
<g><path style="opacity:1" fill="#28292e" d="M 1585.5,344.5 C 1598.99,377.914 1611.66,411.747 1623.5,446C 1611.54,479.987 1599.04,513.82 1586,547.5C 1572.89,513.84 1560.39,480.006 1548.5,446C 1560.39,412.05 1572.72,378.217 1585.5,344.5 Z"/></g>
<g><path style="opacity:1" fill="#28292e" d="M 285.5,427.5 C 298.861,461.079 311.861,494.912 324.5,529C 311.667,562.833 298.833,596.667 286,630.5C 273.068,596.539 260.235,562.539 247.5,528.5C 260.458,494.922 273.125,461.255 285.5,427.5 Z"/></g>
<g><path style="opacity:1" fill="#28292e" d="M 478.5,428.5 C 491.861,462.079 504.861,495.912 517.5,530C 504.667,563.833 491.833,597.667 479,631.5C 466.068,597.539 453.235,563.539 440.5,529.5C 453.458,495.922 466.125,462.255 478.5,428.5 Z"/></g>
<g><path style="opacity:1" fill="#28292e" d="M 1441.5,461.5 C 1454.99,494.914 1467.66,528.747 1479.5,563C 1467.54,596.987 1455.04,630.82 1442,664.5C 1428.89,630.84 1416.39,597.006 1404.5,563C 1416.39,529.05 1428.72,495.217 1441.5,461.5 Z"/></g>
<g><path style="opacity:1" fill="#28292e" d="M 1631.5,461.5 C 1634.48,466.811 1636.98,472.478 1639,478.5C 1649.38,506.659 1659.55,534.826 1669.5,563C 1657.61,597.006 1645.11,630.84 1632,664.5C 1618.97,630.867 1606.47,597.034 1594.5,563C 1607.15,529.204 1619.48,495.37 1631.5,461.5 Z"/></g>
<g><path style="opacity:1" fill="#28292e" d="M 1535.5,461.5 C 1536.75,461.577 1537.58,462.244 1538,463.5C 1549.66,496.643 1561.83,529.643 1574.5,562.5C 1562,596.444 1549.34,630.111 1536.5,663.5C 1523.61,630.031 1510.94,596.364 1498.5,562.5C 1511.45,528.966 1523.79,495.3 1535.5,461.5 Z"/></g>
<g><path style="opacity:1" fill="#28292e" d="M 332.5,551.5 C 345.861,585.079 358.861,618.912 371.5,653C 358.667,686.833 345.833,720.667 333,754.5C 320.068,720.539 307.235,686.539 294.5,652.5C 307.458,618.922 320.125,585.255 332.5,551.5 Z"/></g>
<g><path style="opacity:1" fill="#28292e" d="M 431.5,551.5 C 444.861,585.079 457.861,618.912 470.5,653C 457.667,686.833 444.833,720.667 432,754.5C 419.068,720.539 406.235,686.539 393.5,652.5C 406.458,618.922 419.125,585.255 431.5,551.5 Z"/></g>
<g><path style="opacity:1" fill="#28292e" d="M 524.5,551.5 C 537.861,585.079 550.861,618.912 563.5,653C 550.667,686.833 537.833,720.667 525,754.5C 512.068,720.539 499.235,686.539 486.5,652.5C 499.458,618.922 512.125,585.255 524.5,551.5 Z"/></g>
<g><path style="opacity:1" fill="#28292e" d="M 1487.5,578.5 C 1490.48,583.811 1492.98,589.478 1495,595.5C 1505.38,623.659 1515.55,651.826 1525.5,680C 1513.61,714.006 1501.11,747.84 1488,781.5C 1474.97,747.867 1462.47,714.034 1450.5,680C 1463.15,646.204 1475.48,612.37 1487.5,578.5 Z"/></g>
<g><path style="opacity:1" fill="#28292e" d="M 1584.5,578.5 C 1586.08,581.352 1587.58,584.352 1589,587.5C 1599.77,618.464 1610.93,649.297 1622.5,680C 1610.53,714.034 1598.03,747.867 1585,781.5C 1571.89,747.84 1559.39,714.006 1547.5,680C 1559.39,646.05 1571.72,612.217 1584.5,578.5 Z"/></g>
<g><path style="opacity:1" fill="#28292e" d="M 1678.5,578.5 C 1679.75,578.577 1680.58,579.244 1681,580.5C 1692.64,613.577 1704.81,646.577 1717.5,679.5C 1704.73,713.659 1692.07,747.659 1679.5,781.5C 1666.91,747.624 1654.25,713.624 1641.5,679.5C 1654.47,645.922 1666.8,612.255 1678.5,578.5 Z"/></g>
<g><path style="opacity:1" fill="#28292e" d="M 284.5,669.5 C 297.861,703.079 310.861,736.912 323.5,771C 310.667,804.833 297.833,838.667 285,872.5C 272.068,838.539 259.235,804.539 246.5,770.5C 259.458,736.922 272.125,703.255 284.5,669.5 Z"/></g>
<g><path style="opacity:1" fill="#28292e" d="M 380.5,669.5 C 393.861,703.079 406.861,736.912 419.5,771C 406.667,804.833 393.833,838.667 381,872.5C 368.068,838.539 355.235,804.539 342.5,770.5C 355.458,736.922 368.125,703.255 380.5,669.5 Z"/></g>
<g><path style="opacity:1" fill="#28292e" d="M 478.5,669.5 C 491.861,703.079 504.861,736.912 517.5,771C 504.667,804.833 491.833,838.667 479,872.5C 466.068,838.539 453.235,804.539 440.5,770.5C 453.458,736.922 466.125,703.255 478.5,669.5 Z"/></g>
<g><path style="opacity:1" fill="#28292e" d="M 1630.5,694.5 C 1631.12,694.611 1631.62,694.944 1632,695.5C 1644.61,728.879 1656.78,762.379 1668.5,796C 1656.61,830.006 1644.11,863.84 1631,897.5C 1617.96,863.855 1605.46,830.022 1593.5,796C 1605.61,762.014 1617.95,728.181 1630.5,694.5 Z"/></g>
<g><path style="opacity:1" fill="#28292e" d="M 1440.5,695.5 C 1442.08,698.352 1443.58,701.352 1445,704.5C 1455.77,735.464 1466.93,766.297 1478.5,797C 1466.53,831.034 1454.03,864.867 1441,898.5C 1427.89,864.84 1415.39,831.006 1403.5,797C 1415.39,763.05 1427.72,729.217 1440.5,695.5 Z"/></g>
<g><path style="opacity:1" fill="#28292e" d="M 331.5,787.5 C 344.861,821.079 357.861,854.912 370.5,889C 357.667,922.833 344.833,956.667 332,990.5C 319.068,956.539 306.235,922.539 293.5,888.5C 306.458,854.922 319.125,821.255 331.5,787.5 Z"/></g>
<g><path style="opacity:1" fill="#28292e" d="M 430.5,787.5 C 443.861,821.079 456.861,854.912 469.5,889C 456.667,922.833 443.833,956.667 431,990.5C 418.068,956.539 405.235,922.539 392.5,888.5C 405.458,854.922 418.125,821.255 430.5,787.5 Z"/></g>
<g><path style="opacity:1" fill="#28292e" d="M 1486.5,818.5 C 1487.12,818.611 1487.62,818.944 1488,819.5C 1500.61,852.879 1512.78,886.379 1524.5,920C 1512.61,954.006 1500.11,987.84 1487,1021.5C 1473.96,987.855 1461.46,954.022 1449.5,920C 1461.61,886.014 1473.95,852.181 1486.5,818.5 Z"/></g>
<g><path style="opacity:1" fill="#28292e" d="M 1584.5,818.5 C 1586.08,821.352 1587.58,824.352 1589,827.5C 1599.77,858.464 1610.93,889.297 1622.5,920C 1610.53,954.034 1598.03,987.867 1585,1021.5C 1571.89,987.84 1559.39,954.006 1547.5,920C 1559.39,886.05 1571.72,852.217 1584.5,818.5 Z"/></g>
<g><path style="opacity:1" fill="#28292e" d="M 1394.5,818.5 C 1396.1,819.737 1397.26,821.404 1398,823.5C 1409.52,855.525 1421.35,887.525 1433.5,919.5C 1420.78,953.584 1408.11,987.584 1395.5,1021.5C 1382.79,987.884 1370.12,954.05 1357.5,920C 1370.24,886.14 1382.57,852.307 1394.5,818.5 Z"/></g>
<g><path style="opacity:1" fill="#28292e" d="M 291.5,1079.5 C 284.5,1079.5 277.5,1079.5 270.5,1079.5C 261.174,1054.52 251.84,1029.52 242.5,1004.5C 255.333,970.833 268.167,937.167 281,903.5C 293.972,937.278 306.806,971.112 319.5,1005C 310.062,1029.82 300.728,1054.65 291.5,1079.5 Z"/></g>
<g><path style="opacity:1" fill="#28292e" d="M 392.5,1079.5 C 385.5,1079.5 378.5,1079.5 371.5,1079.5C 362.174,1054.52 352.84,1029.52 343.5,1004.5C 356.333,970.833 369.167,937.167 382,903.5C 394.972,937.278 407.806,971.112 420.5,1005C 411.062,1029.82 401.728,1054.65 392.5,1079.5 Z"/></g>
<g><path style="opacity:1" fill="#28292e" d="M 488.5,1079.5 C 481.5,1079.5 474.5,1079.5 467.5,1079.5C 458.174,1054.52 448.84,1029.52 439.5,1004.5C 452.333,970.833 465.167,937.167 478,903.5C 490.972,937.278 503.806,971.112 516.5,1005C 507.062,1029.82 497.728,1054.65 488.5,1079.5 Z"/></g>
<g><path style="opacity:1" fill="#28292e" d="M 1463.5,1079.5 C 1448.5,1079.5 1433.5,1079.5 1418.5,1079.5C 1413.2,1065.75 1408.2,1051.92 1403.5,1038C 1415.28,1003.94 1427.78,970.103 1441,936.5C 1453.5,970.324 1466,1004.16 1478.5,1038C 1473.41,1051.92 1468.41,1065.75 1463.5,1079.5 Z"/></g>
<g><path style="opacity:1" fill="#28292e" d="M 1654.5,1079.5 C 1639.5,1079.5 1624.5,1079.5 1609.5,1079.5C 1604.59,1065.72 1599.59,1051.89 1594.5,1038C 1607,1004.11 1619.5,970.276 1632,936.5C 1645.22,970.093 1657.72,1003.93 1669.5,1038C 1664.8,1051.92 1659.8,1065.75 1654.5,1079.5 Z"/></g>
<g><path style="opacity:1" fill="#28292e" d="M 1560.5,1079.5 C 1545.17,1079.5 1529.83,1079.5 1514.5,1079.5C 1509.9,1065.38 1504.9,1051.38 1499.5,1037.5C 1512.19,1003.75 1524.86,970.083 1537.5,936.5C 1550.14,970.083 1562.81,1003.75 1575.5,1037.5C 1570.1,1051.38 1565.1,1065.38 1560.5,1079.5 Z"/></g>
<g><path style="opacity:1" fill="#28292e" d="M 259.5,1079.5 C 244.5,1079.5 229.5,1079.5 214.5,1079.5C 221.699,1059.74 229.199,1040.07 237,1020.5C 244.801,1040.07 252.301,1059.74 259.5,1079.5 Z"/></g>
<g><path style="opacity:1" fill="#28292e" d="M 354.5,1079.5 C 339.5,1079.5 324.5,1079.5 309.5,1079.5C 316.699,1059.74 324.199,1040.07 332,1020.5C 339.801,1040.07 347.301,1059.74 354.5,1079.5 Z"/></g>
<g><path style="opacity:1" fill="#28292e" d="M 453.5,1079.5 C 438.5,1079.5 423.5,1079.5 408.5,1079.5C 415.699,1059.74 423.199,1040.07 431,1020.5C 438.801,1040.07 446.301,1059.74 453.5,1079.5 Z"/></g>
<g><path style="opacity:1" fill="#28292e" d="M 1497.5,1079.5 C 1491.17,1079.5 1484.83,1079.5 1478.5,1079.5C 1481.16,1071.04 1484.32,1062.71 1488,1054.5C 1491.65,1062.63 1494.82,1070.96 1497.5,1079.5 Z"/></g>
<g><path style="opacity:1" fill="#28292e" d="M 1595.5,1079.5 C 1589.17,1079.5 1582.83,1079.5 1576.5,1079.5C 1578.91,1070.86 1582.07,1062.53 1586,1054.5C 1589.68,1062.71 1592.84,1071.04 1595.5,1079.5 Z"/></g>
</svg>
