<?xml version="1.0" encoding="UTF-8"?>
<!DOCTYPE svg PUBLIC "-//W3C//DTD SVG 1.1//EN" "http://www.w3.org/Graphics/SVG/1.1/DTD/svg11.dtd">
<svg xmlns="http://www.w3.org/2000/svg" version="1.1" width="100px" height="163px" style="shape-rendering:geometricPrecision; text-rendering:geometricPrecision; image-rendering:optimizeQuality; fill-rule:evenodd; clip-rule:evenodd" xmlns:xlink="http://www.w3.org/1999/xlink">
<g><path style="opacity:0.953" fill="#fefffe" d="M 70.5,-0.5 C 71.5,-0.5 72.5,-0.5 73.5,-0.5C 76.4528,2.69969 78.9528,6.36636 81,10.5C 82.5251,7.91326 84.6917,7.07992 87.5,8C 88.2978,11.1003 89.9645,13.6003 92.5,15.5C 93.1667,15.1667 93.8333,14.8333 94.5,14.5C 95.7472,16.0064 95.7472,17.5064 94.5,19C 98.1128,21.06 98.4461,23.56 95.5,26.5C 96.3202,28.1112 97.6536,28.7778 99.5,28.5C 99.5,29.5 99.5,30.5 99.5,31.5C 93.1691,33.4507 93.1691,34.4507 99.5,34.5C 99.5,35.1667 99.5,35.8333 99.5,36.5C 96.3932,39.04 94.5599,42.3733 94,46.5C 88.2251,49.9851 85.5585,54.9851 86,61.5C 87.526,62.5448 88.3594,64.0448 88.5,66C 87.3202,76.3542 82.3202,84.3542 73.5,90C 82.0111,97.74 86.3444,107.24 86.5,118.5C 83.4798,115.645 80.3132,112.979 77,110.5C 80.3331,127.802 79.8331,145.135 75.5,162.5C 73.1667,162.5 70.8333,162.5 68.5,162.5C 67.1679,154.172 65.8346,145.839 64.5,137.5C 56.1581,138.13 47.8248,138.797 39.5,139.5C 38.5509,147.64 36.2176,155.307 32.5,162.5C 30.8333,162.5 29.1667,162.5 27.5,162.5C 23.8842,144.951 23.5509,127.284 26.5,109.5C 19.3844,111.058 12.7177,113.725 6.5,117.5C 5.38615,116.277 5.21948,114.944 6,113.5C 12.9263,103.239 21.7596,95.0726 32.5,89C 27.6938,86.6938 24.0271,83.1938 21.5,78.5C 12.7579,78.9309 9.25789,74.9309 11,66.5C 12.1581,66.0019 12.9915,65.1685 13.5,64C 11.8431,61.5013 10.1764,59.0013 8.5,56.5C 5.68095,56.2577 2.68095,56.2577 -0.5,56.5C -0.5,55.5 -0.5,54.5 -0.5,53.5C 6.57036,53.3803 7.07036,51.7136 1,48.5C 0.313117,46.4325 0.479784,44.4325 1.5,42.5C 1.14451,41.4777 0.477842,40.811 -0.5,40.5C -0.5,39.5 -0.5,38.5 -0.5,37.5C 0.283213,35.9242 1.44988,34.5908 3,33.5C 3.33333,30.8333 3.66667,28.1667 4,25.5C 6.06269,23.2698 7.39602,20.6031 8,17.5C 9.57934,15.9588 11.4127,14.7922 13.5,14C 11.0546,10.283 11.7213,9.78298 15.5,12.5C 19.4964,10.8373 23.1631,8.6706 26.5,6C 28.1124,5.27969 29.6124,5.44636 31,6.5C 33.7066,3.59209 36.8733,2.92543 40.5,4.5C 45.5441,0.261682 50.7107,-0.0716514 56,3.5C 58.2303,2.51149 60.0636,3.17816 61.5,5.5C 63.7411,4.96823 65.2411,3.63489 66,1.5C 69.1041,5.60878 70.6041,4.94211 70.5,-0.5 Z M 57.5,5.5 C 58.2891,5.78281 58.9558,6.28281 59.5,7C 58.184,7.52811 57.5173,7.02811 57.5,5.5 Z"/></g>
</svg>
